<?xml version="1.0" encoding="UTF-8"?>
<svg version="1.1" xmlns="http://www.w3.org/2000/svg" width="1764" height="1871">
<path d="M0 0 C31.77207316 0.53685531 58.04613025 13.52568793 80 36 C92.50602348 49.40891611 102.44206774 65.24209903 111.95532227 80.84130859 C116.24211095 87.84662766 120.69966421 94.72560591 125.25 101.5625 C125.92716064 102.58093994 126.60432129 103.59937988 127.30200195 104.64868164 C131.501187 110.90961249 135.85191892 116.94972333 140.69140625 122.73046875 C142 125 142 125 141.77001953 127.2734375 C140.87749724 130.43377009 139.56109573 133.01122929 137.98828125 135.89453125 C137.39595703 137.01537109 136.80363281 138.13621094 136.19335938 139.29101562 C134.94169965 141.63446577 133.67607904 143.97051368 132.39648438 146.29882812 C128.50799843 153.20736446 128.50799843 153.20736446 128.60546875 160.82421875 C129.29576172 162.39623047 129.29576172 162.39623047 130 164 C135.01473016 162.97425974 138.64212244 161.08498667 143 158.375 C147.70948452 155.51736052 150.54826795 154.13267899 156 155 C156 158.86809624 155.55126259 160.4990412 154.0625 163.9375 C148.5425736 176.73818954 150.68523751 190.16851678 155 203 C157.11133206 207.52844325 160.19407898 210.88567612 164.6875 213.22265625 C169.93133175 214.98536321 175.5212026 215.4224846 181 216 C180.7834375 216.71800781 180.566875 217.43601562 180.34375 218.17578125 C176.51925519 232.39369484 176.1852653 247.45698219 181.9140625 261.19140625 C183.37940336 263.63188402 185.14674273 264.2862366 187.85546875 264.96484375 C191.5506775 265.02542094 194.57785736 263.4123834 197.86328125 261.84765625 C198.56839844 261.56792969 199.27351563 261.28820312 200 261 C200.66 261.33 201.32 261.66 202 262 C201.06027344 263.30324219 201.06027344 263.30324219 200.1015625 264.6328125 C199.27565054 265.79659753 198.45015156 266.96067571 197.625 268.125 C197.00625 268.97964844 197.00625 268.97964844 196.375 269.8515625 C192.23962437 275.72112791 190.43693401 280.75082057 191.3125 287.94140625 C192.51323244 293.28330114 194.58923662 298.29258385 196.625 303.36328125 C199.22006502 310.22693334 200.22445063 316.54781341 197.375 323.5 C195.25077679 327.95475586 192.41112636 331.46379901 189 335 C189.71285156 335.4125 190.42570312 335.825 191.16015625 336.25 C192.11792969 336.8275 193.07570313 337.405 194.0625 338 C195.00222656 338.556875 195.94195313 339.11375 196.91015625 339.6875 C203.67252187 344.7485878 208.15687908 351.33249692 212.25 358.625 C212.71253174 359.43767334 213.17506348 360.25034668 213.65161133 361.08764648 C220.90031864 373.98307599 227.43728875 387.23917875 233.3125 400.8125 C236.47429956 408.11250219 239.800185 414.87822926 245.5625 420.5 C247 423 247 423 246.70605469 424.87890625 C245.26712003 429.23270585 243.58339333 432.82778178 240.94921875 436.59375 C234.67502339 445.58098962 234.67502339 445.58098962 233.37695312 456.11865234 C235.3173567 462.81428059 238.41889137 468.97565649 241.58789062 475.1640625 C243.45508948 478.91395563 244.89696462 482.70760376 246.1875 486.6875 C246.52744995 487.72547729 246.52744995 487.72547729 246.87426758 488.78442383 C252.14585402 505.56982446 255.79741084 522.97549049 258.3125 540.375 C258.45961426 541.39255371 258.60672852 542.41010742 258.75830078 543.45849609 C259.22669322 546.96733069 259.63132377 550.47958604 260 554 C260.08613556 554.81786987 260.17227112 555.63573975 260.26101685 556.47839355 C261.96079457 573.16043076 262.36133626 589.73983531 262.3125 606.5 C262.31100952 607.77037109 262.30951904 609.04074219 262.3079834 610.34960938 C262.26715599 629.74202072 261.69171324 648.77700106 259 668 C258.82887695 669.24217285 258.65775391 670.4843457 258.48144531 671.76416016 C255.62021409 692.13935773 255.62021409 692.13935773 254 697 C260.81717938 692.58888393 264.96771051 684.72270007 267 677 C271.94230144 681.28332792 273.08601874 685.63757373 273.5625 692 C273.26914474 704.09275588 264.13848368 715.0759305 257.71484375 724.8203125 C244.14166919 745.30728316 244.14166919 745.30728316 241 769 C242.0325432 772.18571385 243.46607608 775.03292088 245 778 C245.68204709 779.66043187 246.35248674 781.32579906 247 783 C246.26394531 782.88140625 245.52789063 782.7628125 244.76953125 782.640625 C243.30580078 782.44726562 243.30580078 782.44726562 241.8125 782.25 C240.84957031 782.11078125 239.88664062 781.9715625 238.89453125 781.828125 C235.01153348 782.05869437 233.68414622 783.22985247 231 786 C225.28828336 795.87352021 223.24709971 807.68366444 220.6081543 818.64038086 C212.13667699 853.39749521 212.13667699 853.39749521 199 862 C194.97392915 864.21433897 191.55229813 864.1785215 187 864 C187.32613281 865.2375 187.65226562 866.475 187.98828125 867.75 C189.26587833 873.51440975 189.25751209 879.11898408 189.1875 885 C189.18685547 886.02867187 189.18621094 887.05734375 189.18554688 888.1171875 C189.15914069 892.7294685 189.02560316 897.20763333 188.3828125 901.77734375 C187.85489816 906.01881301 188.50867948 909.43005484 189.6875 913.5625 C189.86958008 914.20727295 190.05166016 914.8520459 190.23925781 915.51635742 C191.6612661 920.35374667 193.58203014 924.59584062 196 929 C196 929.66 196 930.32 196 931 C195.17757812 931.15855469 194.35515625 931.31710937 193.5078125 931.48046875 C179.47219794 934.41400944 169.86660093 939.42655612 161.75 951.5 C151.83035348 969.4962986 153.50053741 992.25692431 156.5625 1011.92578125 C156.95503312 1014.68402736 157.16197971 1017.22103556 157 1020 C156 1021 156 1021 152.5 1021.4375 C148.56437018 1021.4375 146.61762254 1020.27571691 143.5 1017.9375 C140.3315663 1015.60373168 138.52608014 1014.5484529 134.5625 1015 C130.98220878 1015.69132851 130.98220878 1015.69132851 129 1018 C129.91523437 1018.83144531 130.83046875 1019.66289063 131.7734375 1020.51953125 C132.97411032 1021.61702125 134.1746228 1022.71468668 135.375 1023.8125 C135.97828125 1024.35970703 136.5815625 1024.90691406 137.203125 1025.47070312 C138.07324219 1026.26831055 138.07324219 1026.26831055 138.9609375 1027.08203125 C139.49509277 1027.56905518 140.02924805 1028.0560791 140.57958984 1028.55786133 C143.80709029 1031.83473399 144.28596842 1034.38206104 144.55859375 1038.8671875 C143.52618836 1042.80909897 140.56129455 1045.05879847 137.15649414 1047.11132812 C135.06048558 1048.22024662 132.9431876 1049.27186596 130.8125 1050.3125 C123.84341661 1053.86172169 117.82331301 1057.72813709 112 1063 C111.38125 1063.49242187 110.7625 1063.98484375 110.125 1064.4921875 C95.95624706 1076.70008624 90.23531647 1102.83190232 85.9375 1120.19824219 C85.76599426 1120.88470322 85.59448853 1121.57116425 85.41778564 1122.27842712 C84.94796006 1124.19440478 84.49828019 1126.11528971 84.04980469 1128.03637695 C83 1131 83 1131 81.26147461 1132.45410156 C79.19247853 1133.24212668 77.17726368 1133.5986447 75 1134 C42.6136053 1145.24715799 30.75809651 1176.29095384 16.63549805 1204.74755859 C13.58029409 1210.88951975 10.39768919 1216.9548935 7.17138672 1223.00830078 C4.42215219 1228.2041115 1.77030753 1233.44243379 -0.8359375 1238.7109375 C-1.17382294 1239.39396942 -1.51170837 1240.07700134 -1.85983276 1240.7807312 C-2.37321701 1241.81860275 -2.37321701 1241.81860275 -2.89697266 1242.87744141 C-9.15486309 1255.52543893 -15.37963094 1268.10105493 -23 1280 C-23.45793945 1280.71720215 -23.91587891 1281.4344043 -24.38769531 1282.17333984 C-31.44429772 1293.14426172 -38.99297176 1303.70443207 -47 1314 C-47.79277344 1315.01964844 -48.58554688 1316.03929687 -49.40234375 1317.08984375 C-64.39084905 1335.87157358 -83.6925888 1350.09785541 -108 1354 C-110.13740827 1354.20702199 -112.27707528 1354.39141914 -114.41796875 1354.55859375 C-128.07517223 1354.85460905 -128.07517223 1354.85460905 -139.4375 1361.125 C-141.287155 1363.85516066 -141.287155 1363.85516066 -143 1367 C-143.86520687 1368.28747391 -144.74241048 1369.56693477 -145.62890625 1370.83984375 C-152.23016673 1380.45369179 -157.73313325 1390.60931719 -163 1401 C-166.34503558 1400.09593633 -167.74656011 1399.35917971 -169.76953125 1396.4921875 C-171.35783266 1391.98443683 -171.56238738 1387.8721303 -171.6875 1383.125 C-171.72166016 1382.24585938 -171.75582031 1381.36671875 -171.79101562 1380.4609375 C-171.8729314 1378.30772295 -171.93815579 1376.15388449 -172 1374 C-172.74382935 1374.58297852 -172.74382935 1374.58297852 -173.50268555 1375.17773438 C-178.75605678 1379.19731101 -184.32739223 1381.38660056 -190.5 1383.5625 C-197.02087627 1385.86236024 -203.21271635 1388.13273281 -209 1392 C-210.4540625 1392.9590625 -210.4540625 1392.9590625 -211.9375 1393.9375 C-214.5393978 1396.5393978 -215.09358198 1398.43698355 -216 1402 C-216.02966794 1405.66687869 -216.02966794 1405.66687869 -215.625 1409.375 C-215.51414062 1410.62023438 -215.40328125 1411.86546875 -215.2890625 1413.1484375 C-215.19367188 1414.08945313 -215.09828125 1415.03046875 -215 1416 C-218.00056084 1416.08166849 -220.9988539 1416.14081551 -224 1416.1875 C-225.25876953 1416.22520508 -225.25876953 1416.22520508 -226.54296875 1416.26367188 C-232.4452654 1416.33230323 -236.56320263 1415.26927195 -242 1413 C-245.3347049 1412.7464579 -245.3347049 1412.7464579 -248 1413 C-250.86390108 1418.85797948 -252.0122936 1424.57409836 -253 1431 C-254.64935547 1430.3503125 -254.64935547 1430.3503125 -256.33203125 1429.6875 C-267.36660586 1425.47277525 -277.01676754 1422.34616168 -288.40625 1427.41015625 C-292.77239004 1430.08638968 -296.30622083 1433.64015922 -299.9765625 1437.171875 C-310.56207401 1447.27343846 -320.36923609 1452.25225455 -335 1452 C-334.54775239 1446.08507728 -333.8417395 1440.64800112 -332 1435 C-332.79664063 1435.144375 -333.59328125 1435.28875 -334.4140625 1435.4375 C-335.47367188 1435.623125 -336.53328125 1435.80875 -337.625 1436 C-338.66914062 1436.185625 -339.71328125 1436.37125 -340.7890625 1436.5625 C-343.91777533 1436.98879664 -346.8472587 1437.14792921 -350 1437 C-351.52951026 1435.47048974 -351.3539351 1434.06639586 -351.5 1431.9375 C-351.49322185 1427.68082343 -350.42319667 1425.79975077 -347.5625 1422.6875 C-346.92441406 1422.07261719 -346.28632812 1421.45773437 -345.62890625 1420.82421875 C-343.82235341 1418.80105286 -343.13867615 1417.70951863 -343 1415 C-346.6375578 1409.13000601 -353.53861059 1405.00157326 -360 1403 C-363.44070798 1402.83484602 -366.62165046 1403.382071 -370 1404 C-379.90002434 1405.51867233 -393.34132901 1405.77244733 -402 1400 C-401.57847656 1399.23816406 -401.15695312 1398.47632813 -400.72265625 1397.69140625 C-396.6028431 1389.92677017 -393.56199361 1383.87324389 -396.125 1375.1875 C-398.97749308 1370.33826176 -401.81708386 1368.13098971 -407.1875 1366.625 C-415.63540213 1365.044515 -424.02139362 1368.45363626 -432 1371 C-431.4946875 1370.26136719 -430.989375 1369.52273438 -430.46875 1368.76171875 C-426.59894413 1362.71898617 -423.80750397 1357.82960733 -424.4140625 1350.51953125 C-426.48652555 1341.60794014 -434.44981346 1337.04767859 -441.76953125 1332.46875 C-450.62892682 1327.1626769 -459.99027644 1322.60669884 -470 1320 C-468.84826645 1317.53199953 -467.95216435 1315.95216435 -466 1314 C-465.15359635 1308.48188787 -466.05911531 1303.270822 -467.5 1297.9375 C-469.16122638 1291.78305179 -470.23811988 1286.27737614 -467.9375 1280.1875 C-465.23046733 1277.13117279 -462.70611432 1275.75552784 -459 1274 C-457.68 1274 -456.36 1274 -455 1274 C-455.66 1271.69 -456.32 1269.38 -457 1267 C-460.20547958 1268.43024761 -462.5354446 1270.20433073 -465.125 1272.5625 C-469.5391038 1276.56850741 -471.84096719 1277.21549623 -477.734375 1277.16796875 C-480.44901699 1276.96671081 -482.58628954 1276.24578604 -485 1275 C-484.79503906 1274.39414063 -484.59007812 1273.78828125 -484.37890625 1273.1640625 C-483.50919987 1270.45923403 -482.73536798 1267.74436296 -482 1265 C-481.68675781 1263.84757812 -481.68675781 1263.84757812 -481.3671875 1262.671875 C-480.12026899 1256.00652876 -482.15718792 1250.91751314 -484.81420898 1244.88427734 C-486.90735341 1240.00291577 -487.57670892 1236.32769196 -487 1231 C-485.46875 1228.46875 -485.46875 1228.46875 -483.5 1226.5 C-482.8503125 1225.8296875 -482.200625 1225.159375 -481.53125 1224.46875 C-481.0259375 1223.9840625 -480.520625 1223.499375 -480 1223 C-481.051875 1222.773125 -482.10375 1222.54625 -483.1875 1222.3125 C-487.29333208 1221.08737269 -489.36721905 1219.48665585 -492 1216 C-504.6391315 1190.35932463 -501.30566044 1155.50810156 -492.37890625 1129.19921875 C-490.92542569 1125.82697916 -489.0457931 1123.03822039 -487 1120 C-486.88394923 1117.70291681 -486.88394923 1117.70291681 -488 1116 C-488.99 1115.67 -489.98 1115.34 -491 1115 C-495.63862428 1118.27432302 -498.68643297 1121.79768977 -501.9375 1126.4375 C-506.12264195 1132.37926826 -510.43884563 1137.21942281 -517 1140.5 C-520.93640758 1141.15606793 -524.0710207 1140.67741022 -528 1140 C-522.14427344 1125.97707586 -512.05160904 1115.8392412 -501.35546875 1105.34375 C-496.22128927 1100.30759445 -496.22128927 1100.30759445 -493 1094 C-493.70125 1093.9175 -494.4025 1093.835 -495.125 1093.75 C-500.78465967 1092.27356704 -504.8897023 1088.88761067 -508 1084 C-510.62378057 1075.7287512 -510.6831871 1067.22917887 -511.12304688 1058.6171875 C-511.61550969 1045.17934273 -511.61550969 1045.17934273 -517.1875 1033.4375 C-520.72402898 1031.62994074 -524.23671189 1030.27569088 -528 1029 C-527.01 1026.03 -526.02 1023.06 -525 1020 C-521.76289287 1018.95270063 -520.28525684 1018.8907527 -517.0625 1020.125 C-512.68893545 1022.80269258 -509.06485016 1025.65327774 -505.875 1029.6875 C-503.96964572 1032.03743695 -502.69019831 1032.77768998 -500 1034 C-499.82726562 1032.80375 -499.65453125 1031.6075 -499.4765625 1030.375 C-497.3865701 1016.88409904 -494.33991832 1003.72655286 -491 990.5 C-490.6774826 989.22213623 -490.6774826 989.22213623 -490.34844971 987.91845703 C-486.70043394 973.50787694 -486.70043394 973.50787694 -484.82763672 966.7265625 C-478.90770872 945.26922251 -480.70999308 924.56445215 -490.25 904.3515625 C-492.38976801 897.64249821 -487.84016576 891.0378903 -485 885.125 C-465.58542368 843.60782137 -457.87240326 801.73372561 -455.875 756.25 C-455.78824976 754.36586282 -455.70101203 752.48174803 -455.61328125 750.59765625 C-455.40326995 746.06534075 -455.19973002 741.53277972 -455 737 C-450.07566822 737.64614851 -447.76966005 738.75390384 -444 742 C-443.34 742 -442.68 742 -442 742 C-442.30035156 741.31035156 -442.60070313 740.62070312 -442.91015625 739.91015625 C-443.29042969 738.97042969 -443.67070313 738.03070312 -444.0625 737.0625 C-444.44535156 736.14597656 -444.82820313 735.22945312 -445.22265625 734.28515625 C-447.11726969 726.27827231 -444.33305296 719.60049943 -441 712.375 C-436.51229371 703.15622311 -436.51229371 703.15622311 -436.77734375 693.19921875 C-437.16019531 692.37035156 -437.54304688 691.54148437 -437.9375 690.6875 C-440 686.1220339 -440 686.1220339 -440 684 C-438.22496094 683.76216797 -438.22496094 683.76216797 -436.4140625 683.51953125 C-421.10003179 681.69358729 -421.10003179 681.69358729 -409.125 672.8125 C-402.03849148 659.04013362 -402.30171098 642.51881388 -401.68286133 627.4128418 C-400.83678367 607.35337908 -400.83678367 607.35337908 -397 602.4375 C-393.32139204 599.79350053 -391.36240658 600.00785469 -386.875 600.4375 C-385.23144531 600.59025391 -385.23144531 600.59025391 -383.5546875 600.74609375 C-382.71164062 600.82988281 -381.86859375 600.91367187 -381 601 C-383.26790497 596.30334573 -385.73786767 594.7495928 -390.375 592.5 C-395.06748881 590.21308591 -398.71567426 588.12521062 -402 584 C-402.48828125 581.10546875 -402.48828125 581.10546875 -402.3125 578.1875 C-402.26738281 577.21167969 -402.22226563 576.23585938 -402.17578125 575.23046875 C-402.11777344 574.49441406 -402.05976562 573.75835938 -402 573 C-401.32195312 572.67128906 -400.64390625 572.34257813 -399.9453125 572.00390625 C-392.59883379 568.24926547 -386.82874503 563.81871277 -381 558 C-380.38511719 557.39671875 -379.77023437 556.7934375 -379.13671875 556.171875 C-365.0645274 541.29093702 -357.29142193 520.38213377 -357.640625 500.046875 C-357.93468905 494.71883312 -359.80629224 490.26795491 -363 486 C-363.66 485.67 -364.32 485.34 -365 485 C-364.43590934 479.95287304 -362.05475516 476.18638203 -359.5625 471.875 C-358.64187081 470.242953 -357.72263975 468.61011666 -356.8046875 466.9765625 C-356.33514648 466.14415039 -355.86560547 465.31173828 -355.38183594 464.45410156 C-343.17323186 442.77196583 -333.59931932 420.03181818 -324.75 396.8125 C-316.29214297 374.64763439 -306.75451002 351.43573974 -289.46875 334.5234375 C-284.89824477 330.28295351 -284.89824477 330.28295351 -282.65625 324.7109375 C-282.9097055 322.33691343 -282.9097055 322.33691343 -283.44921875 319.875 C-287.94139234 296.42649105 -278.00872492 272.14860789 -267 252 C-266.66081543 251.37818848 -266.32163086 250.75637695 -265.97216797 250.11572266 C-261.77930327 242.53623758 -257.18525684 235.23380318 -252.41796875 228.00390625 C-252.00667221 227.37972305 -251.59537567 226.75553986 -251.1716156 226.11244202 C-249.11029357 222.9890977 -247.03915263 219.87292367 -244.9519043 216.7668457 C-240.88262893 210.67418067 -237.0562498 204.52286657 -233.59375 198.0625 C-233.27240082 197.46448578 -232.95105164 196.86647156 -232.6199646 196.25033569 C-229.93410975 191.12225935 -227.90820404 185.87602701 -226.0078125 180.4140625 C-225 178 -225 178 -223 177 C-218.68421053 179.31578947 -218.68421053 179.31578947 -217 181 C-216.11650526 187.90817696 -218.90509339 192.94678321 -221.875 199.0625 C-222.79170341 200.9896314 -223.70584358 202.91798456 -224.6171875 204.84765625 C-225.03967773 205.7411377 -225.46216797 206.63461914 -225.89746094 207.55517578 C-227.14163801 210.31407507 -228.14792474 213.09608835 -229 216 C-210.36169893 211.82541346 -199.67792619 202.51559266 -187.95703125 187.4765625 C-177.68766244 174.48099399 -167.3714392 165.57195037 -151 162 C-151.41572266 161.22076172 -151.41572266 161.22076172 -151.83984375 160.42578125 C-155.34684068 153.67387613 -156.12813653 148.56005549 -156 141 C-155.28714844 141.2165625 -154.57429688 141.433125 -153.83984375 141.65625 C-145.66047237 144.03410224 -139.75257374 145.32292237 -131.9921875 141.265625 C-127.02880617 138.11241804 -123.62621198 134.50272719 -120.3125 129.6875 C-119.88606201 129.08156006 -119.45962402 128.47562012 -119.02026367 127.85131836 C-116.29610832 123.95546182 -113.67943086 119.99577354 -111.0859375 116.01220703 C-105.46777029 107.4104656 -100.31863408 100.75440514 -91 96 C-97.09783141 90.32759869 -103.86960284 86.22462629 -111 82 C-108.79451763 79.79451763 -106.85494669 79.14769215 -103.94848633 78.14990234 C-76.70094263 68.78827129 -58.12502211 50.36409057 -45 25 C-43.08794186 20.95137109 -41.28527834 16.85822175 -39.56201172 12.72583008 C-37.19399971 7.09699985 -37.19399971 7.09699985 -35 6 C-32.46819063 6.84393646 -31.30201639 7.45259529 -30 9.8125 C-30 13.13230681 -31.82923058 14.6318879 -34 17 C-32.35 18.65 -30.7 20.3 -29 22 C-25.3683692 20.92252025 -25.3683692 20.92252025 -22.875 18.25 C-21.88152057 15.69533862 -21.59043087 13.47879105 -21.375 10.75 C-21.30023437 9.85796875 -21.22546875 8.9659375 -21.1484375 8.046875 C-21.09945313 7.37140625 -21.05046875 6.6959375 -21 6 C-19.02 6.495 -19.02 6.495 -17 7 C-16.66127487 8.41538717 -16.32925376 9.83237963 -16 11.25 C-15.814375 12.03890625 -15.62875 12.8278125 -15.4375 13.640625 C-15 16 -15 16 -15 20 C-10.02564008 16.2872531 -7.15285861 12.56864327 -4.125 7.1875 C-3.7228125 6.49462891 -3.320625 5.80175781 -2.90625 5.08789062 C-1.92719494 3.3978551 -0.96211493 1.69973638 0 0 Z M-43.8125 192.125 C-45.67313646 194.34229425 -47.46568147 196.59503743 -49.25 198.875 C-51.88317583 202.0724278 -53.56529576 202.94105705 -57.6875 203.5 C-63.02427953 203.39188844 -66.12344471 200.34719375 -70 197 C-71.32662408 195.9911163 -72.65816566 194.9885638 -74 194 C-80.67998463 206.58171863 -85.97126577 218.19080186 -81.7578125 232.51953125 C-79.53332975 239.50365352 -76.95073814 246.29216586 -74 253 C-74.75925781 252.90460938 -75.51851562 252.80921875 -76.30078125 252.7109375 C-77.29464844 252.60007812 -78.28851562 252.48921875 -79.3125 252.375 C-80.79169922 252.20097656 -80.79169922 252.20097656 -82.30078125 252.0234375 C-85.22657416 251.74523005 -85.22657416 251.74523005 -88 254 C-87.51454093 259.34004973 -86.50841029 263.90107118 -84.62109375 268.921875 C-84 271 -84 271 -84 275 C-90.88100304 276.89901617 -97.5413285 274.71086562 -104.32617188 273.20703125 C-114.10032158 271.26888732 -120.24555401 273.40749325 -128.5 278.875 C-130.03140625 279.86113281 -130.03140625 279.86113281 -131.59375 280.8671875 C-134.36866365 283.32677005 -134.75275053 284.3699282 -135 288 C-135.06703125 288.7528125 -135.1340625 289.505625 -135.203125 290.28125 C-135.30293021 295.00536306 -135.19501423 298.23444752 -132 302 C-131.34 302.28875 -130.68 302.5775 -130 302.875 C-126.8264466 304.66012379 -126.53300075 307.12018399 -125.52734375 310.46875 C-124.71096019 314.38739109 -124.80990789 318.00806568 -125 322 C-126.0725 322.12375 -127.145 322.2475 -128.25 322.375 C-131.81275509 322.76478599 -131.81275509 322.76478599 -134 324.0625 C-138.06107201 325.9661275 -142.81160323 325.34028697 -147 324 C-146.67 324.86625 -146.34 325.7325 -146 326.625 C-142.53841874 339.42776009 -146.33245669 350.56843454 -150.26904297 362.68652344 C-154.69997576 376.71041093 -155.7832212 388.43355761 -149 402 C-150.2684375 402.14695312 -150.2684375 402.14695312 -151.5625 402.296875 C-162.0825103 403.68360363 -167.90898426 406.10408296 -175.9375 412.9375 C-186.16078044 421.61045765 -193.85338732 423.91923552 -207 425 C-206.02021264 427.97466972 -205.02507833 430.93281937 -203.9296875 433.8671875 C-198.92984529 448.12599678 -199.74729993 460.42155834 -205.98144531 473.90087891 C-210.60286796 483.42508598 -215.85614491 492.48299359 -221.875 501.1875 C-226.19914516 507.45569361 -229.83966393 514.00843512 -233.375 520.75 C-233.87499512 521.69641357 -234.37499023 522.64282715 -234.89013672 523.61791992 C-245.08772759 543.39490931 -246.43149034 561.6259043 -240.1328125 582.93359375 C-239.46548337 584.97053646 -238.74100908 586.98868965 -238 589 C-238.84691406 588.68675781 -239.69382812 588.37351562 -240.56640625 588.05078125 C-247.14971501 586.03609404 -255.5711755 584.62267214 -262.1875 587.125 C-266.74827285 590.16551524 -267.92336693 593.17832128 -269.01953125 598.3828125 C-270.20660682 604.49655634 -270.51858123 610.60528829 -270.875 616.8125 C-272.43785484 639.69681532 -272.43785484 639.69681532 -278.41796875 645.2421875 C-285.49580658 650.06068526 -293.78817103 649.22532458 -302 649 C-299.5367759 651.48521717 -297.06292232 653.9415019 -294.5 656.32421875 C-287.65314759 662.79663392 -281.51720129 670.15122641 -280.87060547 679.96362305 C-280.86891357 680.97743042 -280.86891357 680.97743042 -280.8671875 682.01171875 C-280.86525391 682.76509521 -280.86332031 683.51847168 -280.86132812 684.29467773 C-280.86583984 685.08430908 -280.87035156 685.87394043 -280.875 686.6875 C-280.87693359 687.49968994 -280.87886719 688.31187988 -280.88085938 689.14868164 C-280.91451295 693.79988614 -281.16295494 698.32284739 -281.7578125 702.9375 C-282.8381639 712.13791192 -281.70195534 718.00667592 -277 726 C-276.32336141 727.32830058 -275.65320251 728.66001914 -275 730 C-285.68430493 730.76681614 -285.68430493 730.76681614 -288.91015625 728.88671875 C-290.25 727.5 -290.25 727.5 -292 725 C-292.99 725.33 -293.98 725.66 -295 726 C-295.33 726.99 -295.66 727.98 -296 729 C-294.91332031 729.61875 -294.91332031 729.61875 -293.8046875 730.25 C-283.44478269 736.43831648 -278.93653669 742.6998241 -275 754 C-283.83204926 756.14939252 -289.41833193 753.60824977 -297 749 C-298.15482182 748.20032705 -299.30301015 747.39076509 -300.4375 746.5625 C-302.89133647 744.74996101 -302.89133647 744.74996101 -305.75 745.0625 C-308.32935324 745.89310465 -308.32935324 745.89310465 -310 749 C-310 750.32 -310 751.64 -310 753 C-308.5459375 753.6496875 -308.5459375 753.6496875 -307.0625 754.3125 C-304 756 -304 756 -303 759 C-304.216875 759.391875 -305.43375 759.78375 -306.6875 760.1875 C-317.06071434 762.9107457 -317.06071434 762.9107457 -326 768 C-326.3157885 771.03706328 -326.57315506 774.06119749 -326.796875 777.10546875 C-326.95263488 779.06188804 -327.1089047 781.01826679 -327.265625 782.97460938 C-327.50568051 786.02883565 -327.74226565 789.08316391 -327.96875 792.13842773 C-330.04262472 819.84178322 -335.37991745 846.81688831 -341.48345947 873.8626709 C-350.92047743 915.28246158 -350.92047743 915.28246158 -357.3125 957.25 C-357.46783203 958.53132813 -357.62316406 959.81265625 -357.78320312 961.1328125 C-361.90247125 995.71344964 -365.02137659 1041.95724682 -349 1074 C-349.79664063 1073.33291016 -349.79664063 1073.33291016 -350.609375 1072.65234375 C-351.31578125 1072.08644531 -352.0221875 1071.52054688 -352.75 1070.9375 C-353.44609375 1070.36902344 -354.1421875 1069.80054688 -354.859375 1069.21484375 C-356.8958892 1067.83930021 -356.8958892 1067.83930021 -359.109375 1067.93359375 C-362.10473614 1069.62312596 -362.43868787 1071.91955053 -363.5 1075.125 C-363.7072168 1075.74157471 -363.91443359 1076.35814941 -364.12792969 1076.9934082 C-366.06885936 1082.89867929 -367.66486734 1088.89732913 -369.203125 1094.91796875 C-369.73230128 1096.96463585 -370.33150365 1098.99451094 -371 1101 C-368.11592924 1100.53854868 -365.9788418 1099.47131255 -363.5 1098 C-358.51250117 1095.08358119 -354.82522595 1094.88797642 -349 1095 C-348.01585567 1096.91411557 -347.03786651 1098.8313967 -346.0625 1100.75 C-345.51722656 1101.81734375 -344.97195313 1102.8846875 -344.41015625 1103.984375 C-341.08373604 1111.09793845 -341.48544023 1117.28849899 -344.01025391 1124.60717773 C-345.63376036 1128.53218679 -347.96352848 1131.9158334 -350.3125 1135.4375 C-358.07596937 1147.61403687 -362.36673622 1160.63854259 -364 1175 C-363.16597656 1175.14695312 -362.33195312 1175.29390625 -361.47265625 1175.4453125 C-350.27503443 1177.6771409 -342.74187986 1181.73791875 -336 1191 C-333.82973137 1194.70861127 -331.90921733 1198.52673382 -330 1202.375 C-322.94531636 1216.69430316 -322.94531636 1216.69430316 -312 1228 C-311.67 1228.66 -311.34 1229.32 -311 1230 C-311.66 1229.67 -312.32 1229.34 -313 1229 C-314.78633815 1228.8270371 -316.58088959 1228.7331945 -318.375 1228.6875 C-319.80972656 1228.63142578 -319.80972656 1228.63142578 -321.2734375 1228.57421875 C-324.82267228 1229.12846888 -325.89543291 1230.11880451 -328 1233 C-328.79800942 1235.8234628 -328.79800942 1235.8234628 -329.0625 1238.875 C-329.70016148 1243.57416295 -330.53564274 1246.9674154 -333 1251 C-332.2265625 1251.21914062 -331.453125 1251.43828125 -330.65625 1251.6640625 C-320.85939676 1254.64676782 -314.06235984 1258.58005578 -308 1267 C-306.92924418 1269.018116 -305.93640529 1271.06476239 -304.94140625 1273.12109375 C-301.03588324 1280.91593428 -293.02611156 1285.21003371 -285 1288 C-284.01 1288 -283.02 1288 -282 1288 C-282.03480469 1286.96101563 -282.06960938 1285.92203125 -282.10546875 1284.8515625 C-282.37518017 1273.449752 -281.60685323 1263.17048417 -274 1254 C-272.06171074 1252.38171133 -270.21847947 1251.2382211 -268 1250 C-268.33 1250.969375 -268.66 1251.93875 -269 1252.9375 C-270.20805838 1257.28474659 -270.83108964 1261.52554768 -270 1266 C-266.81162188 1270.16260477 -263.61206572 1272.38564214 -258.55859375 1273.57421875 C-252.63539138 1274.28292244 -246.75746705 1273.72234091 -240.81591797 1273.37792969 C-235.45413818 1273.09695605 -230.24028181 1272.97895291 -224.8828125 1273.38671875 C-215.7582132 1274.40747923 -215.7582132 1274.40747923 -207.22705078 1271.921875 C-204.08037439 1269.01316537 -202.02127673 1265.51598324 -199.99609375 1261.77392578 C-198.47051154 1259.05704334 -196.58645598 1256.65275178 -194.6875 1254.1875 C-193.58728516 1252.71796875 -193.58728516 1252.71796875 -192.46484375 1251.21875 C-183.49581218 1239.41291545 -173.91547526 1228.01966259 -164 1217 C-163.30076416 1216.22052002 -163.30076416 1216.22052002 -162.58740234 1215.42529297 C-148.73441448 1200.19647759 -132.37906936 1191.94086375 -112 1190 C-112.15855469 1188.8759375 -112.31710937 1187.751875 -112.48046875 1186.59375 C-114.5085136 1170.1964851 -114.12751525 1152.20562272 -104.625 1138.046875 C-99.22905306 1131.25005721 -92.86207992 1128.25296355 -84.90625 1125.1953125 C-83.24131949 1124.53343439 -81.61575542 1123.77421614 -80 1123 C-78.25305089 1117.75915268 -78.08932597 1112.89723756 -80.5 1107.875 C-83.16333242 1104.81216771 -85.98636905 1102.21099705 -89.09765625 1099.61328125 C-92.76811401 1096.50055218 -94.33768903 1094.90110116 -95 1090 C-89.27032115 1088.09010705 -84.87356117 1088.96192494 -79.1875 1090.5625 C-69.26683159 1093.16282427 -60.70669055 1090.65182783 -51 1088 C-47.29969159 1069.806817 -46.46398314 1057.35176852 -56 1041 C-56.75605578 1039.67626491 -57.51130127 1038.3520666 -58.265625 1037.02734375 C-58.83796875 1036.02832031 -59.4103125 1035.02929688 -60 1034 C-52.40143584 1035.46492695 -45.71720851 1037.24364372 -38.92578125 1041.01171875 C-37.06419854 1042.15219103 -37.06419854 1042.15219103 -35 1042 C-34.23541954 1040.37031656 -33.51501319 1038.71988548 -32.8125 1037.0625 C-32.40644531 1036.14597656 -32.00039062 1035.22945312 -31.58203125 1034.28515625 C-30.13412078 1026.11272198 -35.84158705 1018.23852045 -39.77148438 1011.39453125 C-43.80978981 1004.09996283 -45.30093438 997.29438308 -45.125 988.9375 C-45.10695313 987.81214844 -45.08890625 986.68679688 -45.0703125 985.52734375 C-45.03550781 984.27630859 -45.03550781 984.27630859 -45 983 C-40.05877409 983.35936188 -37.92811332 983.95549948 -34.5703125 987.734375 C-32.96644012 989.86420836 -31.47993923 992.04193019 -29.98046875 994.25 C-28.11878001 997.17432657 -28.11878001 997.17432657 -25 999 C-21.57982443 999.39958487 -18.12706959 999.5635348 -15 998 C-14.98598145 996.91452881 -14.98598145 996.91452881 -14.97167969 995.80712891 C-14.29121471 953.71836854 0.33616886 923.30272073 28 892 C28.83144531 891.03449219 29.66289063 890.06898438 30.51953125 889.07421875 C35.5790544 883.31353334 40.79808355 878.46936858 46.84765625 873.77734375 C49.07931141 872.17880942 49.07931141 872.17880942 50 870 C49.030625 869.38125 48.06125 868.7625 47.0625 868.125 C44 866 44 866 43 864 C42.35469641 856.97248652 44.21712917 852.14744243 47.125 845.8125 C47.74024536 844.42212524 47.74024536 844.42212524 48.36791992 843.00366211 C50.12372135 839.0552602 51.92400993 835.13047698 53.79296875 831.234375 C62.02393418 814.17556725 62.02393418 814.17556725 61.2578125 795.85546875 C57.93816066 789.51905301 52.07126767 786.40246174 46 783 C49.2112079 778.53593447 52.56040539 774.17722744 56.0625 769.9375 C56.69285156 769.16277344 57.32320312 768.38804687 57.97265625 767.58984375 C60 766 60 766 62.5859375 766.12890625 C65.59368494 767.21422612 67.53981688 768.98138821 70 771 C72.08802202 771.63832521 72.08802202 771.63832521 74 772 C73.96519531 770.42412109 73.96519531 770.42412109 73.9296875 768.81640625 C73.91090655 767.3984447 73.89270888 765.98047534 73.875 764.5625 C73.85824219 763.87478516 73.84148437 763.18707031 73.82421875 762.47851562 C73.73565824 752.95826126 76.35962224 745.55217133 80.75 737.1875 C81.19448486 736.31601318 81.63896973 735.44452637 82.09692383 734.54663086 C84.03691816 730.74801839 86.01038719 726.96920331 88.02734375 723.2109375 C88.57519531 722.17195312 89.12304688 721.13296875 89.6875 720.0625 C90.16574219 719.18722656 90.64398437 718.31195312 91.13671875 717.41015625 C92.37024961 714.61833494 92.37024961 714.61833494 91 710 C83.575 708.515 83.575 708.515 76 707 C76.70125 706.09121094 77.4025 705.18242188 78.125 704.24609375 C103.76639044 670.50813831 107.44449831 633.41063497 107.375 592.0625 C107.37412384 590.77300446 107.37324768 589.48350891 107.37234497 588.15493774 C107.31978129 564.45854022 105.85707732 541.15243396 103.37738037 517.60076904 C102.95362451 513.55750899 102.53747919 509.51351263 102.12353516 505.46923828 C102.04676953 504.71940705 101.97000391 503.96957582 101.89091206 503.19702244 C101.49102831 499.28669165 101.09280638 495.37619668 100.69651794 491.46549988 C100.6171465 490.68249795 100.53777506 489.89949602 100.45599842 489.09276676 C100.29523378 487.50674354 100.13455827 485.92071129 99.97397137 484.33467007 C99.50224133 479.68869933 99.01806884 475.04423902 98.52379131 470.40061569 C93.4488979 422.593602 93.4488979 422.593602 101.09765625 401.5234375 C101.87347707 399.35382604 102.46159614 397.23599092 103 395 C102.37955811 394.98018066 101.75911621 394.96036133 101.11987305 394.93994141 C98.30865463 394.84468155 95.49817834 394.73500698 92.6875 394.625 C91.71103516 394.5940625 90.73457031 394.563125 89.72851562 394.53125 C88.32182617 394.47324219 88.32182617 394.47324219 86.88671875 394.4140625 C86.02264404 394.3826416 85.15856934 394.3512207 84.26831055 394.31884766 C82 394 82 394 79 392 C78.54950973 387.76539144 79.13985174 384.15222649 80 380 C81.3870319 372.99646569 81.17274601 366.11137723 81 359 C77.04 359 73.08 359 69 359 C67.11010621 354.12929813 66.5985553 349.77608662 66.375 344.625 C66.33632812 343.88894531 66.29765625 343.15289063 66.2578125 342.39453125 C66.16442002 340.59672594 66.0811629 338.79839892 66 337 C64.35 336.67 62.7 336.34 61 336 C60.38125 336.804375 59.7625 337.60875 59.125 338.4375 C56.8270252 341.20858726 56.10449361 341.85333773 52.6171875 342.31640625 C51.71226562 342.39761719 50.80734375 342.47882813 49.875 342.5625 C48.96492188 342.64628906 48.05484375 342.73007812 47.1171875 342.81640625 C46.41851563 342.87699219 45.71984375 342.93757812 45 343 C46.02656524 335.13867147 47.70769307 328.22389676 51 321 C48.41271272 320.0282769 47.27322261 319.90126114 44.6328125 320.85546875 C43.39144531 321.51482422 43.39144531 321.51482422 42.125 322.1875 C41.24585938 322.64898438 40.36671875 323.11046875 39.4609375 323.5859375 C36.80902152 325.05695747 36.80902152 325.05695747 33.75 327.3125 C30.56016881 329.26989641 28.67644843 329.35013795 25 329 C22.86737837 325.53448984 22.30267271 323.02900212 23 319 C24.38623047 317.26220703 24.38623047 317.26220703 26.1796875 315.3828125 C30.02994079 311.11984019 32.87287475 306.61437886 35.6875 301.625 C36.14705078 300.83867188 36.60660156 300.05234375 37.08007812 299.2421875 C41.8781823 290.864328 46.90927696 281.93471231 45 272 C43.07146551 267.59823044 41.00920721 264.67280481 37 262 C36.73445313 262.55429687 36.46890625 263.10859375 36.1953125 263.6796875 C35.84210938 264.40414062 35.48890625 265.12859375 35.125 265.875 C34.77695313 266.59429688 34.42890625 267.31359375 34.0703125 268.0546875 C33 270 33 270 31 272 C28 272.25 28 272.25 25 272 C22.27014175 269.27014175 22.70075631 267.68397852 22.6875 263.875 C22.81225321 257.58882461 23.00005905 251.97866477 27.65234375 247.359375 C28.86776267 246.34181497 30.10075443 245.34482408 31.3515625 244.37109375 C34.71877815 241.57040016 36.15791752 238.18785661 37 234 C37.09021304 232.27268559 37.13010978 230.54216105 37.125 228.8125 C37.12886719 227.49185547 37.12886719 227.49185547 37.1328125 226.14453125 C37.23865033 224.01796809 37.23865033 224.01796809 36 223 C30.91727021 222.40303509 26.49461812 222.02524905 22.125 224.875 C17.34154367 231.90949461 14.26718767 239.58706702 11.30859375 247.53125 C9.78674342 250.40232287 9.05178334 251.01313157 6 252 C4.00889599 252.38290462 2.00899487 252.72604615 0 253 C-0.13615919 249.99844627 -0.2346398 247.003179 -0.3125 244 C-0.35439453 243.16082031 -0.39628906 242.32164062 -0.43945312 241.45703125 C-0.56591289 234.93170759 1.05074199 231.13500064 5 226 C5.83917969 224.85144531 5.83917969 224.85144531 6.6953125 223.6796875 C7.40300781 222.78636719 7.40300781 222.78636719 8.125 221.875 C12.5892328 216.02853713 12.5892328 216.02853713 14 209 C13.31292969 208.95101562 12.62585937 208.90203125 11.91796875 208.8515625 C11.01691406 208.77679688 10.11585938 208.70203125 9.1875 208.625 C8.29417969 208.55539062 7.40085937 208.48578125 6.48046875 208.4140625 C4 208 4 208 1 206 C-0.16953555 202.49139335 -0.18273642 199.50890812 -0.3125 195.8125 C-0.62877217 189.62143524 -1.53372508 185.19941238 -5 180 C-18.31768898 171.12154068 -34.98436185 182.14618572 -43.8125 192.125 Z " fill="#000000" transform="translate(1491,261)"/>
<path d="M0 0 C-6.24779409 8.15684229 -14.4034225 13.78265097 -23.0625 19.1875 C-27.47218374 22.07412842 -29.14821652 25.01029641 -30.58984375 30.0703125 C-31.18934262 34.3524473 -30.84168027 38.5092731 -30.5625 42.8125 C-30.51029297 43.69615234 -30.45808594 44.57980469 -30.40429688 45.49023438 C-30.27525381 47.66050408 -30.13840044 49.83030693 -30 52 C-35.06958354 52.83393149 -38.2646113 53.20984806 -43 51 C-44.35308313 49.68671343 -45.68870078 48.35500919 -47 47 C-49.06383008 46.36135164 -49.06383008 46.36135164 -51 46 C-50.72285156 46.59425781 -50.44570313 47.18851563 -50.16015625 47.80078125 C-47.16688197 54.65015976 -44.75875194 61.72006422 -46.5234375 69.2265625 C-51.19917399 80.33679875 -65.52696902 86.35358956 -76.02157593 90.86999512 C-80.69670807 92.74885379 -85.43904343 94.44213201 -90.1875 96.125 C-107.66448959 101.19376401 -107.66448959 101.19376401 -121 112 C-122.26138844 115.92361529 -121.85246889 118.44259333 -120.5625 122.3125 C-120.13130859 123.63701172 -120.13130859 123.63701172 -119.69140625 124.98828125 C-119.46324219 125.65214844 -119.23507812 126.31601563 -119 127 C-119.90621094 127.556875 -120.81242188 128.11375 -121.74609375 128.6875 C-128.44927879 132.86731728 -134.6122752 137.05469394 -140.328125 142.56640625 C-142 144 -142 144 -144 144 C-144.268125 144.59039062 -144.53625 145.18078125 -144.8125 145.7890625 C-146.01072058 148.01996003 -147.27008995 149.53697058 -149 151.375 C-151.74344143 154.41824018 -154.13969624 157.571783 -156.45410156 160.95288086 C-165.60420545 174.28500967 -176.68276972 185.3311344 -191.55737305 192.17700195 C-194.9624496 194.71830197 -195.23205201 196.90946971 -196.2109375 201.0078125 C-196.38462357 201.7130304 -196.55830963 202.41824829 -196.73725891 203.14483643 C-197.30320189 205.46724515 -197.83935213 207.79543402 -198.375 210.125 C-198.76405554 211.74982963 -199.15445399 213.37433825 -199.54614258 214.99853516 C-202.27911237 226.43737186 -204.7305416 237.93458159 -207.11758423 249.44973755 C-219.75371455 310.35970032 -219.75371455 310.35970032 -239 323 C-244.02964662 325.62742734 -248.2820977 327.24331499 -254 327 C-252.32738743 335.51490049 -252.32738743 335.51490049 -248.375 343.125 C-245.32294275 347.46936977 -245.11722218 351.79959778 -245 357 C-246.4540625 357.37125 -246.4540625 357.37125 -247.9375 357.75 C-256.092829 360.09899943 -263.57915984 363.17347678 -268.3125 370.5 C-271.1275137 374.57390182 -274.29699247 376.52676873 -279 378 C-282.33192527 378.56086616 -285.62545176 378.86169884 -289 379 C-288.72285156 379.79664063 -288.44570313 380.59328125 -288.16015625 381.4140625 C-287.79792969 382.47367187 -287.43570313 383.53328125 -287.0625 384.625 C-286.70285156 385.66914063 -286.34320312 386.71328125 -285.97265625 387.7890625 C-281.78792647 401.6037126 -284.13551151 412.13722518 -290.6875 424.5625 C-291.38226876 425.92887993 -292.07394443 427.29683654 -292.76269531 428.66625977 C-293.8173243 430.76206045 -294.87372521 432.8567211 -295.93984985 434.94670105 C-299.21422071 441.3663893 -302.25311352 447.88395959 -305.25 454.4375 C-310.1298839 465.03342553 -315.11829975 475.5741087 -320.1418457 486.10256958 C-327.1011554 500.69063159 -333.93682563 515.32360706 -340.57983398 530.05834961 C-344.16698198 538.00829885 -347.83013026 545.91657895 -351.56567383 553.79785156 C-378.4505768 610.52184978 -399.85040744 668.94354089 -418 729 C-424.93 729.33 -431.86 729.66 -439 730 C-438.401875 731.629375 -437.80375 733.25875 -437.1875 734.9375 C-436.85105469 735.85402344 -436.51460938 736.77054688 -436.16796875 737.71484375 C-435.16590906 740.3340424 -435.16590906 740.3340424 -432 741 C-429.97481509 740.0520411 -427.97522846 739.04808041 -426 738 C-422.56966372 736.86151529 -419.34602909 736.89841273 -415.75 736.9375 C-414.67234375 736.94652344 -413.5946875 736.95554687 -412.484375 736.96484375 C-411.25460937 736.98224609 -411.25460937 736.98224609 -410 737 C-412.62736754 739.73436441 -415.30509313 742.03104977 -418.375 744.25 C-424.99123795 749.35364408 -430.19255375 755.66853347 -432 764 C-432.20024737 767.31752159 -432.20024737 767.31752159 -431 770 C-427.14096856 772.45574728 -422.4675459 772.5456733 -418 773 C-418.48210938 773.73605469 -418.96421875 774.47210937 -419.4609375 775.23046875 C-420.09257813 776.20628906 -420.72421875 777.18210937 -421.375 778.1875 C-422.00148438 779.15042969 -422.62796875 780.11335937 -423.2734375 781.10546875 C-428.5207089 789.90236491 -428.91556303 798.8935438 -426.5 808.75 C-424.24133446 817.23594109 -420.82394546 825.11720407 -417 833 C-416.70061523 833.63389648 -416.40123047 834.26779297 -416.09277344 834.92089844 C-405.69509469 856.72822252 -390.73442945 876.6589461 -375.88183594 895.59619141 C-374.0358825 897.95416462 -372.20690882 900.32431102 -370.3828125 902.69921875 C-360.21147319 915.91591135 -349.62294696 928.77119293 -338.82470703 941.47875977 C-335.33099627 945.5938179 -331.90139405 949.75697523 -328.49609375 953.9453125 C-326.6029825 956.26207775 -324.69933516 958.56793727 -322.78515625 960.8671875 C-315.1546969 970.04663117 -307.7642392 979.36955495 -300.58349609 988.90478516 C-298.99955532 991.00058839 -297.40172072 993.08513132 -295.80078125 995.16796875 C-284.33551319 1010.14690159 -274.33841585 1024.49821752 -273.75 1044 C-273.53434918 1049.66829379 -273.53434918 1049.66829379 -270.6875 1054.3125 C-266.90032924 1056.69049094 -263.87686637 1057.12754639 -259.453125 1057.09765625 C-258.60878906 1057.09443359 -257.76445313 1057.09121094 -256.89453125 1057.08789062 C-256.02183594 1057.07951172 -255.14914062 1057.07113281 -254.25 1057.0625 C-253.36183594 1057.05798828 -252.47367188 1057.05347656 -251.55859375 1057.04882812 C-249.37232671 1057.037074 -247.18619821 1057.02064249 -245 1057 C-244.69707031 1058.01578125 -244.39414062 1059.0315625 -244.08203125 1060.078125 C-236.77710046 1084.4701399 -236.77710046 1084.4701399 -218.75 1101.56640625 C-213.62776298 1104.23666333 -208.65307439 1106.71003672 -203 1108 C-203.39650396 1113.4188874 -205.28463351 1117.13460683 -209 1121 C-210.97271584 1122.37337905 -212.96943463 1123.71369441 -215 1125 C-214.16339844 1125.54785156 -213.32679688 1126.09570312 -212.46484375 1126.66015625 C-188.55510427 1142.7620668 -175.16743948 1163.92925242 -162.84375 1189.4453125 C-155.69156075 1204.22347327 -146.11263736 1221.63252508 -131.75 1230.375 C-129.55078125 1231.99609375 -129.55078125 1231.99609375 -128 1234 C-127.51034136 1238.29171398 -128.17250283 1242.37189626 -128.73925781 1246.62255859 C-130.16080271 1259.58417302 -129.30190529 1272.72905163 -127.2578125 1285.55859375 C-127.07947372 1286.71872482 -126.90113495 1287.8788559 -126.71739197 1289.07414246 C-126.15432671 1292.71763837 -125.57886482 1296.35898342 -125 1300 C-124.81847382 1301.14909851 -124.63694763 1302.29819702 -124.44992065 1303.4821167 C-123.54154702 1309.22698278 -122.62441119 1314.97039584 -121.70117188 1320.71289062 C-104.47320021 1427.94640041 -104.47320021 1427.94640041 -113 1445 C-117.74540592 1443.6338983 -121.65573586 1441.57696357 -125.75 1438.875 C-126.36488281 1438.47176514 -126.97976563 1438.06853027 -127.61328125 1437.65307617 C-135.83990021 1432.18834273 -142.97417489 1426.10989296 -149.875 1419.0625 C-161.35232344 1407.3795618 -174.34640048 1399.21612303 -189 1392 C-188.731875 1391.21625 -188.46375 1390.4325 -188.1875 1389.625 C-187.5996875 1387.830625 -187.5996875 1387.830625 -187 1386 C-186.72414063 1385.18015625 -186.44828125 1384.3603125 -186.1640625 1383.515625 C-185.88304687 1382.64421875 -185.60203125 1381.7728125 -185.3125 1380.875 C-184.90451172 1379.63363281 -184.90451172 1379.63363281 -184.48828125 1378.3671875 C-183.93340275 1375.67713654 -183.70839848 1374.44426583 -185 1372 C-187.84879661 1370.50096718 -187.84879661 1370.50096718 -191.375 1369.4375 C-191.99971191 1369.22843018 -192.62442383 1369.01936035 -193.26806641 1368.80395508 C-198.78459678 1366.98733117 -204.3678565 1365.41378296 -210 1364 C-208.83559908 1361.63560511 -207.62687075 1359.35047871 -206.3125 1357.0625 C-204.81059842 1354.14335499 -204.81059842 1354.14335499 -205.0625 1351.3125 C-206.19103429 1348.52878208 -207.47034573 1347.55043326 -210 1346 C-209.56179109 1341.44262737 -209.14958831 1338.42346555 -206 1335 C-208.47260564 1334.08422013 -209.79798323 1333.94683769 -212.375 1334.625 C-215.201329 1335.94542969 -215.201329 1335.94542969 -217.6875 1338.625 C-221.17227635 1341.74392057 -224.53292221 1341.40759251 -229.0234375 1341.17578125 C-229.67570313 1341.11777344 -230.32796875 1341.05976562 -231 1341 C-230.85636473 1339.62476865 -230.70996483 1338.24982598 -230.5625 1336.875 C-230.48128906 1336.10929687 -230.40007813 1335.34359375 -230.31640625 1334.5546875 C-230.08876819 1332.71672095 -229.80145712 1330.88578923 -229.4765625 1329.0625 C-228.00619629 1319.61358929 -229.19669981 1310.2046103 -230.5625 1300.82421875 C-231 1297 -231 1297 -231 1289 C-240.9 1289 -250.8 1289 -261 1289 C-261.1546875 1282.1009375 -261.1546875 1282.1009375 -261.3125 1275.0625 C-262.03924357 1248.07315402 -262.03924357 1248.07315402 -275.1875 1225.125 C-279.9002772 1220.70978723 -285.19797756 1217.76544995 -291 1215 C-290.125 1209.2890625 -290.125 1209.2890625 -289 1206.6875 C-286.53875278 1200.0728981 -286.70834649 1194.86013917 -289.15234375 1188.3125 C-292.21714173 1179.95139214 -292.15661909 1174.29281287 -289 1166 C-288.32765423 1164.001902 -287.65971825 1162.00230274 -287 1160 C-287.82242188 1159.45472656 -288.64484375 1158.90945313 -289.4921875 1158.34765625 C-296.86052648 1153.39662035 -303.57033866 1148.15204211 -310 1142 C-310.67417969 1141.38898438 -311.34835937 1140.77796875 -312.04296875 1140.1484375 C-317.37505212 1135.14628344 -321.38854128 1129.43436184 -325.5546875 1123.47265625 C-337.23900892 1106.77750583 -352.37488756 1093.9798641 -372.78515625 1089.37109375 C-375 1088 -375 1088 -375.93359375 1084.46484375 C-376.11766292 1082.95760825 -376.28446983 1081.44820252 -376.4375 1079.9375 C-380.59826554 1049.61773538 -398.70240812 1022.29759188 -420 1001 C-420.73347656 1000.26652344 -421.46695312 999.53304687 -422.22265625 998.77734375 C-438.27227303 983.68770405 -458.11102067 974.99422885 -479 969 C-479.27690674 969.72453369 -479.55381348 970.44906738 -479.83911133 971.19555664 C-481.74992068 975.81163803 -484.24303639 980.08677571 -486.6875 984.4375 C-487.19216797 985.36626953 -487.69683594 986.29503906 -488.21679688 987.25195312 C-492.71719349 995.24570438 -497.23519249 1000.67055775 -506.25 1003.375 C-507.77367187 1003.85066406 -507.77367187 1003.85066406 -509.328125 1004.3359375 C-512 1005 -512 1005 -515 1005 C-514.67 1005.66 -514.34 1006.32 -514 1007 C-512.45463515 1031.15081815 -517.13688861 1053.87478388 -532.77587891 1072.61572266 C-538.48449364 1079.47791657 -543.60899218 1086.68087405 -548.6484375 1094.04296875 C-549.93087578 1095.89990973 -551.2410896 1097.73317248 -552.5625 1099.5625 C-553.305 1100.614375 -554.0475 1101.66625 -554.8125 1102.75 C-555.78123047 1104.10351562 -555.78123047 1104.10351562 -556.76953125 1105.484375 C-558.20221856 1107.92245262 -558.20221856 1107.92245262 -557.93359375 1110.59765625 C-555.99932891 1115.57494863 -551.11760002 1118.88825999 -546.5 1121.3125 C-543.01229301 1122.27161942 -539.51985971 1123.16477905 -536 1124 C-536.825 1124.969375 -537.65 1125.93875 -538.5 1126.9375 C-539.32564453 1127.91009766 -539.32564453 1127.91009766 -540.16796875 1128.90234375 C-541.36834517 1130.27676195 -542.59970817 1131.62485317 -543.86328125 1132.94140625 C-558.21532771 1148.09877796 -565.77824363 1168.75799839 -573.87011719 1187.65576172 C-590.01509515 1225.31773241 -590.01509515 1225.31773241 -607.08203125 1233.47265625 C-611.5681301 1237.35820639 -611.62945835 1241.8114168 -612.5 1247.5 C-612.90977693 1249.79681279 -613.32652176 1252.09239264 -613.75 1254.38671875 C-613.95753906 1255.52028809 -614.16507813 1256.65385742 -614.37890625 1257.82177734 C-617.23337001 1272.42846335 -622.89313329 1286.384494 -627.9727478 1300.32687378 C-636.28282373 1323.1389808 -644.35683647 1346.03043958 -650.625 1369.5 C-651.1032019 1371.28736572 -651.1032019 1371.28736572 -651.59106445 1373.11083984 C-652.44206693 1376.39800408 -653.23927818 1379.6908601 -654 1383 C-654.21785156 1383.92135742 -654.43570312 1384.84271484 -654.66015625 1385.79199219 C-656.46496545 1394.6697864 -656.01535724 1403.47927899 -655.80535889 1412.48126221 C-655.48841195 1428.33315187 -655.90673701 1442.78878475 -660.99023438 1457.95507812 C-662.13382741 1461.40355306 -663.17045122 1464.87610748 -664.203125 1468.359375 C-668.51524767 1482.78810346 -673.31206074 1497.04656224 -678.3125 1511.25 C-678.68523041 1512.31115021 -678.68523041 1512.31115021 -679.06549072 1513.39373779 C-692.19020727 1550.64267411 -692.19020727 1550.64267411 -703 1558 C-704.65983557 1558.36583434 -706.32654391 1558.7026221 -708 1559 C-707.97905273 1560.00933594 -707.95810547 1561.01867188 -707.93652344 1562.05859375 C-707.45786208 1587.67359271 -708.48122388 1612.97174409 -710.57714844 1638.50585938 C-711.91153969 1654.94091697 -713.15698328 1671.5520296 -711.25 1688 C-711.16274658 1688.77778809 -711.07549316 1689.55557617 -710.9855957 1690.35693359 C-709.80454762 1699.8072785 -707.03533828 1708.04205685 -701.85546875 1716.0625 C-701 1718 -701 1718 -701.1328125 1720.0546875 C-702.23173443 1722.5198367 -703.54289233 1723.49918314 -705.6875 1725.125 C-717.66737896 1735.19752793 -721.59997334 1752.00172244 -723 1767 C-724.47262911 1792.15533392 -721.59552683 1816.10230201 -705 1836 C-697.19135978 1843.53389177 -688.39607035 1846.1625801 -677.6875 1846.0625 C-676.43324219 1846.05347656 -675.17898438 1846.04445313 -673.88671875 1846.03515625 C-672.93410156 1846.02355469 -671.98148438 1846.01195312 -671 1846 C-668.92312166 1850.15375669 -670.24469112 1855.55529774 -671 1860 C-673.06327708 1864.05540667 -675.18818884 1866.5690894 -679 1869 C-681.22735596 1869.39872742 -681.22735596 1869.39872742 -683.67675781 1869.43237305 C-684.59741028 1869.45216721 -685.51806274 1869.47196136 -686.46661377 1869.49235535 C-687.45216248 1869.49874527 -688.43771118 1869.50513519 -689.453125 1869.51171875 C-690.46848328 1869.52966995 -691.48384155 1869.54762115 -692.52996826 1869.56611633 C-695.76993672 1869.62025707 -699.00975753 1869.65412762 -702.25 1869.6875 C-704.44793723 1869.72066969 -706.64585496 1869.75515902 -708.84375 1869.79101562 C-714.22903427 1869.87598556 -719.61433756 1869.94431954 -725 1870 C-725.33265869 1869.18958252 -725.66531738 1868.37916504 -726.00805664 1867.54418945 C-726.67115845 1865.93870239 -726.67115845 1865.93870239 -727.34765625 1864.30078125 C-727.78343994 1863.24286377 -728.21922363 1862.18494629 -728.66821289 1861.0949707 C-730.48984624 1856.86163505 -732.53198172 1852.89013856 -735 1849 C-735.3815625 1848.38511719 -735.763125 1847.77023437 -736.15625 1847.13671875 C-743.22360659 1837.41910344 -756.78610114 1833.95591259 -768 1832 C-767.84402344 1831.45472656 -767.68804688 1830.90945313 -767.52734375 1830.34765625 C-765.89723016 1824.03231553 -765.12221389 1818.13061987 -767.8996582 1812.02099609 C-771.14257213 1806.56959932 -774.82554888 1803.56608399 -780.125 1800.1875 C-789.67010277 1793.76784822 -801.90151819 1785.21282759 -806 1774 C-805.57896196 1769.06916027 -804.44871791 1765.2673372 -802.27734375 1760.83984375 C-801.73916016 1759.71642578 -801.20097656 1758.59300781 -800.64648438 1757.43554688 C-799.50486781 1755.09882084 -798.36163163 1752.7628854 -797.21679688 1750.42773438 C-796.67990234 1749.30560547 -796.14300781 1748.18347656 -795.58984375 1747.02734375 C-795.09347412 1746.01406006 -794.59710449 1745.00077637 -794.08569336 1743.95678711 C-792.49322347 1739.61984023 -792.54746294 1736.35761119 -794 1732 C-796.21433941 1730.91257306 -796.21433941 1730.91257306 -799 1730 C-800.27448625 1729.46698505 -801.54528155 1728.92507048 -802.8125 1728.375 C-803.864375 1727.92125 -804.91625 1727.4675 -806 1727 C-805.278125 1726.29875 -804.55625 1725.5975 -803.8125 1724.875 C-798.69535035 1719.78900767 -798.69535035 1719.78900767 -794.9375 1713.6875 C-795.0057822 1710.75136544 -795.65734242 1709.41853508 -796.9375 1706.8125 C-799.32072472 1701.82184476 -799.9235974 1697.4691454 -799 1692 C-797.92120647 1689.35846818 -796.62526587 1687.39009686 -795 1685 C-794.31641559 1683.67526056 -793.64564462 1682.34363881 -793 1681 C-799.09783141 1675.32759869 -805.86960284 1671.22462629 -813 1667 C-807.76166763 1659.60470724 -800.84593565 1656.13792497 -793 1652 C-793.33 1650.68 -793.66 1649.36 -794 1648 C-795.80597656 1647.90912109 -795.80597656 1647.90912109 -797.6484375 1647.81640625 C-799.22397077 1647.73200268 -800.79949096 1647.64735459 -802.375 1647.5625 C-803.56609375 1647.50352539 -803.56609375 1647.50352539 -804.78125 1647.44335938 C-810.7734375 1647.11328125 -810.7734375 1647.11328125 -813 1646 C-812.22851562 1636.89648438 -812.22851562 1636.89648438 -809 1633 C-805.12175194 1630.31505903 -801.51516633 1629.73797989 -796.9375 1629.125 C-793.05250403 1628.52878775 -791.21820275 1628.15140599 -787.9375 1625.875 C-785.552409 1622.33583271 -784.30747359 1619.06004957 -783 1615 C-783.59296875 1614.74347656 -784.1859375 1614.48695312 -784.796875 1614.22265625 C-789.07089199 1611.85072838 -791.1727853 1608.46847698 -793 1604 C-794.92013262 1592.23918768 -791.91220221 1581.73128686 -788.3125 1570.58203125 C-786.87215838 1565.94475336 -786.19200007 1562.07049981 -788 1557.4375 C-790.78998698 1554.03720337 -794.19075351 1552.12630149 -798 1550 C-793.29692891 1543.72923855 -787.32067547 1538.76434297 -780.72265625 1534.54296875 C-778.82662278 1533.13340217 -778.82662278 1533.13340217 -778.46875 1530.90625 C-778.54813861 1524.79332688 -779.81028127 1519.90820135 -782.125 1514.25 C-783 1512 -783 1512 -783 1510 C-779.04 1510 -775.08 1510 -771 1510 C-771.433125 1508.9275 -771.86625 1507.855 -772.3125 1506.75 C-772.55613281 1506.14671875 -772.79976562 1505.5434375 -773.05078125 1504.921875 C-773.95423837 1502.90277802 -773.95423837 1502.90277802 -775.59375 1501.09375 C-777.36284697 1498.45976117 -777.31136185 1496.88783349 -777.1875 1493.75 C-777.14689453 1492.41195313 -777.14689453 1492.41195313 -777.10546875 1491.046875 C-777.07066406 1490.37140625 -777.03585937 1489.6959375 -777 1489 C-771 1491 -771 1491 -768.84375 1491.765625 C-767.71453125 1492.16007812 -767.71453125 1492.16007812 -766.5625 1492.5625 C-765.51255859 1492.93568359 -765.51255859 1492.93568359 -764.44140625 1493.31640625 C-761.32525563 1494.18892842 -758.20625805 1494.59093913 -755 1495 C-755.87011719 1493.72769531 -755.87011719 1493.72769531 -756.7578125 1492.4296875 C-772.97266676 1468.28308733 -776.53637306 1442.55567679 -776 1414 C-775.31035156 1414.34933594 -774.62070312 1414.69867187 -773.91015625 1415.05859375 C-767.77879941 1418.0275498 -762.80845852 1419.66515778 -756 1420 C-756.44730469 1419.5875 -756.89460937 1419.175 -757.35546875 1418.75 C-767.75424036 1408.81684503 -770.96407667 1398.49331132 -771.40429688 1384.30004883 C-771.59418109 1368.28694577 -768.61969159 1353.14490519 -763.62597656 1337.97729492 C-762.15924983 1333.3231723 -761.91502769 1329.42452181 -762.0625 1324.5 C-761.921875 1321.0703125 -761.921875 1321.0703125 -761 1318 C-757.88417155 1315.14837922 -754.676687 1313.28233467 -750.984375 1311.28125 C-746.72898885 1308.96391925 -743.18964814 1306.06785328 -739.5625 1302.875 C-738.97090088 1302.35462158 -738.37930176 1301.83424316 -737.76977539 1301.2980957 C-736.1701693 1299.87569353 -734.58296365 1298.44086831 -733 1297 C-732.31292969 1296.38511719 -731.62585938 1295.77023437 -730.91796875 1295.13671875 C-727.07640843 1291.51107751 -723.86192609 1287.41021421 -720.625 1283.25 C-719.96226074 1282.3983728 -719.96226074 1282.3983728 -719.28613281 1281.52954102 C-717.38132799 1279.02622175 -716.0023973 1277.00719189 -715 1274 C-715.9075 1273.896875 -716.815 1273.79375 -717.75 1273.6875 C-721.12170291 1272.97425515 -722.66697333 1272.50584347 -725 1270 C-726.21316989 1266.36049034 -726.20235731 1264.55086156 -724.875 1260.9375 C-721.59544148 1255.79952499 -717.46295546 1251.73147773 -712 1249 C-708.3070939 1248.67865596 -704.69609202 1248.76323966 -701 1249 C-701.7425 1247.576875 -701.7425 1247.576875 -702.5 1246.125 C-704 1243 -704 1243 -704 1241 C-704.58265625 1240.71253906 -705.1653125 1240.42507813 -705.765625 1240.12890625 C-707.14328477 1239.43285088 -708.51076861 1238.71564353 -709.859375 1237.96484375 C-715.36778806 1234.97163583 -720.03209369 1233.79116283 -726.375 1234.125 C-728.85901627 1235.46254722 -729.19948895 1237.39833909 -730 1240 C-730.33 1240 -730.66 1240 -731 1240 C-730.31653979 1231.9807335 -728.76592177 1224.16230389 -727.15356445 1216.2890625 C-726.68895844 1214.0071631 -726.23982978 1211.72255051 -725.79101562 1209.4375 C-721.71815625 1189.17907952 -713.13599142 1176.59832197 -696.0859375 1165.015625 C-693.42420633 1163.27707654 -690.74090537 1161.60989981 -688 1160 C-688.29124156 1151.36468787 -689.66702512 1143.72361118 -692.16015625 1135.5078125 C-694.42996282 1126.02741112 -691.69165664 1117.31702768 -687 1109 C-685.27788662 1107.27788662 -683.1004671 1107.66619708 -680.75 1107.5625 C-675.55861001 1107.5826477 -675.55861001 1107.5826477 -673.30078125 1109.26953125 C-672.12649544 1110.79202799 -671.05912841 1112.39525999 -670 1114 C-667.94891008 1115.20074254 -667.94891008 1115.20074254 -666 1116 C-665.95625244 1115.12154419 -665.95625244 1115.12154419 -665.91162109 1114.2253418 C-664.82414916 1094.34535578 -660.98935418 1075.45278208 -655.61572266 1056.30810547 C-652.67971265 1045.30214249 -653.06446219 1034.37782156 -658.46484375 1024.25390625 C-660.53873681 1020.76023311 -662.74667593 1017.3799861 -665 1014 C-664.66950533 1010.29539398 -663.48073702 1007.78177508 -661.453125 1004.70703125 C-660.6796875 1003.51303711 -660.6796875 1003.51303711 -659.890625 1002.29492188 C-659.34921875 1001.47572266 -658.8078125 1000.65652344 -658.25 999.8125 C-648.19542561 984.99358436 -648.19542561 984.99358436 -647.40771484 967.6640625 C-647.93738401 965.25546165 -648.54867401 962.88189153 -649.1875 960.5 C-652.33711137 948.09476116 -654.64545959 935.57997307 -657 923 C-645.78 922.67 -634.56 922.34 -623 922 C-625.475 919.525 -625.475 919.525 -628 917 C-633.11647768 910.50069052 -632.78977163 904.03333364 -632 896 C-630.5606682 887.14864255 -627.89732758 878.56875076 -625.3125 870 C-621.87781887 859.88073212 -621.87781887 859.88073212 -623.375 849.6875 C-626.80754284 846.17322995 -630.43304135 844.65893797 -635 843 C-635 842.34 -635 841.68 -635 841 C-633.7315625 840.76216797 -633.7315625 840.76216797 -632.4375 840.51953125 C-622.21155452 838.41624019 -615.72133404 835.88244374 -609.51879883 827.3840332 C-606.77409414 823.07571601 -604.94468005 818.4212836 -603.0625 813.6875 C-602.63864014 812.64021729 -602.21478027 811.59293457 -601.77807617 810.51391602 C-600.50490329 807.3479226 -599.25177549 804.17450264 -598 801 C-597.62037109 800.05833984 -597.24074219 799.11667969 -596.84960938 798.14648438 C-595.81822071 795.58380876 -594.8106768 793.01326545 -593.8125 790.4375 C-593.50900635 789.68364014 -593.2055127 788.92978027 -592.89282227 788.15307617 C-591.11544335 783.42463814 -590.66998357 780.04108667 -592 775 C-594.56556142 773.71721929 -596.03928737 774.06366063 -598.875 774.375 C-600.17050781 774.51035156 -600.17050781 774.51035156 -601.4921875 774.6484375 C-603.91184507 774.92893731 -603.91184507 774.92893731 -605.8515625 775.52734375 C-609.07063811 776.23554039 -612.209378 776.17130599 -615.5 776.1875 C-616.8096875 776.20167969 -618.119375 776.21585938 -619.46875 776.23046875 C-622.67108832 776.02146658 -624.35158038 775.70931164 -627 774 C-626.55527344 773.14277344 -626.11054687 772.28554688 -625.65234375 771.40234375 C-625.08644531 770.25894531 -624.52054688 769.11554687 -623.9375 767.9375 C-623.08478516 766.24947266 -623.08478516 766.24947266 -622.21484375 764.52734375 C-620.79148022 760.39455509 -620.84095608 758.19486607 -622 754 C-624.66187321 749.75589447 -628.00070449 747.42220566 -632.1875 744.75 C-637.96949153 741.03050847 -637.96949153 741.03050847 -639 740 C-639.28727578 735.69086333 -638.99512373 733.99024747 -637 730 C-646.24 729.67 -655.48 729.34 -665 729 C-664.34 727.35 -663.68 725.7 -663 724 C-661.74502043 720.2350613 -661.47935556 717.96991382 -662 714 C-666.89710893 704.59385493 -678.33377347 700.7763723 -687.875 697.7109375 C-696.95584684 695.03670506 -705.44851201 693.82707708 -714.875 693.4375 C-715.84953125 693.39431641 -716.8240625 693.35113281 -717.828125 693.30664062 C-720.21862802 693.20117726 -722.60922444 693.09905825 -725 693 C-725 692.34 -725 691.68 -725 691 C-723.5551153 689.87620079 -722.10591706 688.75549266 -720.60546875 687.70703125 C-718.16931091 685.11676124 -716.70755484 682.45827367 -716 679 C-716.34404535 675.87051751 -717.28812795 673.03042391 -718.3125 670.0625 C-720.67738025 662.93156952 -722.60587898 656.74705096 -719.5 649.5 C-719.005 648.675 -718.51 647.85 -718 647 C-718.556875 647.04640625 -719.11375 647.0928125 -719.6875 647.140625 C-726.63160971 647.46906262 -731.51143219 645.96380444 -736.84375 641.43359375 C-737.4315625 640.89863281 -738.019375 640.36367188 -738.625 639.8125 C-741.62837102 637.11083748 -743.81736032 635.90494001 -748 636 C-748.45375 636.495 -748.9075 636.99 -749.375 637.5 C-751 639 -751 639 -754.875 638.9375 C-758.8409001 638.25950605 -761.19371649 636.97135901 -764 634 C-766.32679841 629.6899573 -765.99627593 625.96545305 -765.5 621.25 C-764.96433664 615.06764023 -765.19187278 609.95618378 -767 604 C-767.96099609 604.32484375 -767.96099609 604.32484375 -768.94140625 604.65625 C-774.03608688 606.29626642 -778.59536343 607.75664912 -784 607 C-788.41181698 603.73542415 -789.17650014 599.81480623 -790.4375 594.75 C-792.41490972 587.46431977 -794.35112032 581.32691971 -800.125 576.0625 C-804.29261524 573.70085136 -808.52598119 573.68584292 -813.1875 573.4375 C-813.93708984 573.39431641 -814.68667969 573.35113281 -815.45898438 573.30664062 C-817.30578375 573.20077315 -819.15286834 573.0999024 -821 573 C-820.7834375 572.29875 -820.566875 571.5975 -820.34375 570.875 C-817.38154664 561.46299056 -817.38154664 561.46299056 -818.80859375 551.94140625 C-823.91140331 542.60096937 -833.82592557 538.99141468 -843.06640625 534.796875 C-846.95143747 533.03244343 -850.79753941 531.19835423 -854.625 529.3125 C-855.73101563 528.77238281 -856.83703125 528.23226562 -857.9765625 527.67578125 C-860.94325222 526.03145323 -863.42417365 524.19759163 -866 522 C-864.16964286 517.29336735 -864.16964286 517.29336735 -862.9609375 515.203125 C-860.46296305 509.47606162 -861.17797057 502.53257598 -863.0625 496.7265625 C-866.73234983 488.80846259 -871.59284606 482.72073049 -879.6875 479.125 C-882.33940279 478.19605558 -884.13728377 478.00775716 -886.97265625 478.16796875 C-895.1884399 478.53028579 -895.1884399 478.53028579 -898.61328125 475.63720703 C-902.67168139 471.18479969 -905.83408008 466.10423823 -909 461 C-909.83395543 459.70919584 -910.66855676 458.41880868 -911.50390625 457.12890625 C-927.22552067 432.33675292 -937.63631994 401.93343107 -931.75 372.4375 C-927.67086897 356.23376291 -919.25780576 342.79168094 -904.671875 333.9921875 C-886.67533785 324.22228144 -865.85538065 322.76931357 -846 327 C-836.85064189 329.85745719 -829.92615356 335.54144769 -823.84765625 342.796875 C-821.78832321 345.25240108 -819.6522613 347.62559328 -817.5 350 C-814.84886006 352.93678465 -812.21709829 355.88602542 -809.625 358.875 C-808.41782183 360.25101428 -807.20932753 361.62587433 -806 363 C-805.57928223 363.4832373 -805.15856445 363.96647461 -804.72509766 364.46435547 C-803.30541097 366.08905824 -801.872566 367.70137602 -800.4375 369.3125 C-799.99035645 369.8286084 -799.54321289 370.3447168 -799.08251953 370.87646484 C-795.00557537 375.41219556 -791.48789425 377.80022262 -785.3515625 378.29296875 C-784.12179687 378.25816406 -782.89203125 378.22335937 -781.625 378.1875 C-780.37976563 378.16042969 -779.13453125 378.13335937 -777.8515625 378.10546875 C-776.91054688 378.07066406 -775.96953125 378.03585937 -775 378 C-775.34728869 379.56889191 -775.72939496 381.13008936 -776.125 382.6875 C-776.33382812 383.55761719 -776.54265625 384.42773438 -776.7578125 385.32421875 C-779.06842664 390.30148506 -782.98181801 392.76932974 -787.9453125 394.66015625 C-789.33427113 395.14014478 -790.72764998 395.60751869 -792.125 396.0625 C-796.92405082 397.63429921 -800.68075381 399.00142622 -804 403 C-803.34 403.66 -802.68 404.32 -802 405 C-799.43496598 404.7434966 -798.19723482 404.17423884 -796.2578125 402.4609375 C-793.27675481 400.53201782 -791.26658814 400.69782865 -787.75 400.8125 C-786.67234375 400.83957031 -785.5946875 400.86664063 -784.484375 400.89453125 C-783.25460937 400.94673828 -783.25460937 400.94673828 -782 401 C-782.66027682 405.00617394 -783.90896818 408.49443813 -785.4375 412.25 C-790.84168707 426.15094362 -791.74818959 437.8989724 -786 452 C-776.05844422 471.66564003 -752.61065613 484.77506939 -732.4375 491.875 C-724.74923264 494.26414975 -716.93462289 495.71753139 -709 497 C-710.96442672 503.53307052 -714.34253248 507.25692806 -720 511 C-722.57664594 512.02061949 -725.13423647 512.97024076 -727.75 513.875 C-733.68576411 516.00162435 -738.82221481 518.33240215 -744 522 C-739.42279524 525.57245249 -736.77718582 526.54705922 -731 526 C-728.35921003 524.86299321 -725.99024059 523.70739518 -723.5 522.3125 C-714.15165248 517.35490983 -704.54337838 513.52222028 -694 512 C-693.55080824 516.58175596 -693.34636702 519.90283035 -695.75 523.9375 C-699.86511474 526.54901512 -703.45800391 526.954559 -708.2578125 527.4453125 C-711.24738884 528.05004162 -712.23356232 528.56091221 -714 531 C-714.93335834 534.6556535 -715.24211322 537.41167292 -714 541 C-710.05390481 540.44126086 -707.55675198 539.29135624 -704.3125 537 C-699.46769328 533.61270656 -697.07692508 532.69100381 -691 533 C-688.0625 534 -688.0625 534 -686 535 C-686.56735006 538.55953874 -687.76943562 540.01201574 -690.4375 542.375 C-693.56791748 545.34504773 -695.05520054 547.69591356 -696 552 C-691.69935312 557.28261276 -686.96470169 558.74515961 -680.5625 560.6875 C-679.63373047 560.98205078 -678.70496094 561.27660156 -677.74804688 561.58007812 C-675.96170265 562.14585975 -674.17352604 562.7058986 -672.38330078 563.25927734 C-669.57488341 564.13212495 -666.78527029 565.05607701 -664 566 C-664.02320313 566.66644531 -664.04640625 567.33289063 -664.0703125 568.01953125 C-664.27123737 578.28105135 -663.7633496 587.81907965 -657 596 C-655.72141982 597.22217223 -654.42884048 598.42981289 -653.125 599.625 C-646.56689296 605.89688984 -642.07965027 615.00746989 -641 624 C-639.96875 623.855625 -638.9375 623.71125 -637.875 623.5625 C-633.32853385 623.5303695 -630.22967974 625.21235859 -626.25 627.3125 C-607.57581152 637.09211055 -586.33441667 635.09436775 -566 632 C-567.06943059 634.17921705 -568.1767261 636.31688818 -569.359375 638.4375 C-569.81828125 639.283125 -570.2771875 640.12875 -570.75 641 C-571.21921875 641.845625 -571.6884375 642.69125 -572.171875 643.5625 C-573.24206181 645.94810583 -573.24206181 645.94810583 -572.36328125 648.19140625 C-568.31793025 653.5581613 -559.7475284 654.69111518 -553.5625 656.4375 C-535.89396843 661.455132 -535.89396843 661.455132 -531 669 C-530.34 669.66 -529.68 670.32 -529 671 C-511.32192337 622.80806165 -511.32192337 622.80806165 -502.74609375 572.6171875 C-502.22986249 559.77408309 -499.82311574 553.84502737 -490.75585938 544.85205078 C-487.50968888 541.42804503 -484.77420693 537.62122211 -482 533.8125 C-481.41130127 533.00562744 -480.82260254 532.19875488 -480.21606445 531.36743164 C-448.2441496 487.02723716 -431.34347734 440.09347398 -426 386 C-425.31220459 385.87375244 -424.62440918 385.74750488 -423.91577148 385.61743164 C-423.01415283 385.44590576 -422.11253418 385.27437988 -421.18359375 385.09765625 C-420.28954834 384.93015869 -419.39550293 384.76266113 -418.47436523 384.59008789 C-415.0022428 383.76205435 -413.31309076 382.73365271 -411 380 C-408.32389502 373.91902931 -407.43514888 367.81896517 -406.9375 361.25 C-406.1222889 350.9347546 -406.1222889 350.9347546 -404 347 C-400.43318675 345.270636 -397.77586316 346.25830519 -394.1875 347.4375 C-392.78742649 347.94682527 -391.39006515 348.46396181 -390 349 C-391.81048875 338.2800008 -396.30173721 333.28207868 -405 327 C-402.34291864 324.2950433 -399.61509272 321.73308035 -396.75 319.25 C-396.04359375 318.63640625 -395.3371875 318.0228125 -394.609375 317.390625 C-394.07828125 316.93171875 -393.5471875 316.4728125 -393 316 C-393.309375 315.29875 -393.61875 314.5975 -393.9375 313.875 C-395.97548954 308.36044005 -396.13586192 302.94880816 -396.0625 297.125 C-396.05798828 296.43664062 -396.05347656 295.74828125 -396.04882812 295.0390625 C-396.03716336 293.35933665 -396.01923271 291.67965625 -396 290 C-395.236875 290.309375 -394.47375 290.61875 -393.6875 290.9375 C-389.02806045 292.77960401 -385.00359024 293.64741463 -380 293 C-367.13074832 287.35559137 -360.57705341 274.68332725 -355.50878906 262.22045898 C-347.54209367 241.53217118 -344.77023703 221.41153828 -351 200 C-339.27936355 190.37781811 -327.14849745 181.53901967 -314.61328125 173.01171875 C-313.90163818 172.52646729 -313.18999512 172.04121582 -312.45678711 171.54125977 C-311.12077053 170.63235486 -309.78196721 169.72752514 -308.43969727 168.82788086 C-292.78013164 158.20461963 -283.6945007 143.45952696 -277 126 C-273.89382104 126.47063318 -271.46479554 127.23354376 -268.5625 128.5 C-262.25492177 131.15582241 -258.46579486 131.31307724 -252 129 C-249.58355053 127.45989494 -247.43257751 125.6645818 -245.25 123.8125 C-229.57223959 111 -229.57223959 111 -225 111 C-225.12375 109.2675 -225.12375 109.2675 -225.25 107.5 C-225.19726624 90.7833967 -217.4036545 75.82352395 -206 64 C-168.50555399 29.25687399 -112.82070217 16.25999359 -63.90917969 8.75683594 C-59.03805099 8.00910527 -54.17056193 7.23889383 -49.30290222 6.46894836 C-44.57702178 5.72266383 -39.85018844 4.98255599 -35.12307739 4.24411011 C-32.76096437 3.8748509 -30.39904365 3.50435934 -28.037323 3.13259888 C-24.69367613 2.6076542 -21.3489821 2.08996929 -18.00390625 1.57421875 C-16.99780304 1.41511017 -15.99169983 1.25600159 -14.95510864 1.09207153 C-9.90416493 0.32105386 -5.10947038 -0.17875827 0 0 Z " fill="#000000" transform="translate(934,1)"/>
<path d="M0 0 C-1.21417521 3.33756999 -2.23193077 5.27718555 -4.5625 8.0625 C-6.81164302 10.77300569 -7.37667371 11.74329524 -8 15 C-6.783125 15.185625 -5.56625 15.37125 -4.3125 15.5625 C9.08822337 18.61769637 19.82334581 27.31523669 27.3125 38.625 C49.77123411 79.43030563 42.1883177 139.35690011 37.046875 183.40942383 C35.39910531 197.79629838 33.86971992 212.19927161 36.50073242 226.54931641 C37.29240121 231.30416747 36.50679571 233.91858388 34 238 C29.0686889 237.57731619 27.30848865 235.53931344 24 232 C18.97657604 226.9657497 15.19648655 223.79960962 8 223 C5.47748715 223.41643002 3.4129835 224.09513119 1 225 C1.36334498 233.53860695 2.84093304 241.28809632 8.5 247.9375 C10.627356 249.6925687 12.74453322 251.41281968 15 253 C14.67 253.99 14.34 254.98 14 256 C2.21532017 260.09141703 -13.02480261 261.90049286 -25 258 C-26.32 257.34 -27.64 256.68 -29 256 C-29.33 269.86 -29.66 283.72 -30 298 C-31.64893134 295.526603 -32.96402317 293.13545959 -34.3125 290.5 C-36.89018313 285.84354016 -39.16786037 283.84198746 -44.3125 282.3125 C-55.4907237 281.01270655 -66.41889142 283.09076895 -75.8984375 289.328125 C-80.01917637 292.60633362 -82.56628762 295.83143811 -83.625 301.125 C-82.5472873 306.0824784 -79.06006657 308.29328895 -75 311 C-75.24463374 314.30255551 -76.25315671 315.25918425 -78.625 317.6875 C-82.06047922 320.30074367 -84.59386441 321.14687119 -89 321 C-91.3515625 319.93359375 -91.3515625 319.93359375 -93.875 318.5625 C-98.76331145 315.91497277 -102.49488667 314.91624076 -108 316 C-110.47829691 316.90508335 -112.80062905 317.93047825 -115.15234375 319.125 C-117 320 -117 320 -119 320 C-118.18039024 325.66484557 -118.18039024 325.66484557 -114.75 329.875 C-111.9762666 331.07126771 -111.9762666 331.07126771 -108.875 331.875 C-106 333 -106 333 -104.125 335.125 C-102.07581659 340.36180206 -102.65081546 345.60326186 -104 351 C-107.9625458 350.29768311 -111.67014344 349.16287842 -115.5 347.9375 C-124.21215276 345.4587285 -132.65668547 344.20923614 -141.25 347.75 C-157.21877524 357.02635972 -163.83014403 380.05513262 -168.33166504 396.7305603 C-169.08019815 399.50305217 -169.84973164 402.26902308 -170.62402344 405.03442383 C-172.82655852 412.92841182 -174.96719128 420.83741182 -177.04296875 428.765625 C-181.37454409 445.18811265 -186.13381177 460.04622677 -200 471 C-200.66 471 -201.32 471 -202 471 C-202.15819214 469.71706055 -202.15819214 469.71706055 -202.31958008 468.40820312 C-202.81209642 464.43814196 -203.31025819 460.46884106 -203.8125 456.5 C-203.94730774 455.43273178 -203.94730774 455.43273178 -204.08483887 454.34390259 C-205.09220631 446.41476107 -206.1389477 438.52116694 -207.75 430.6875 C-209.37791003 422.44002214 -210.58046521 415.271638 -206.27734375 407.69140625 C-203.57367665 404.11132107 -200.16510472 402.38836824 -196 401 C-196.05079563 389.5201868 -201.74342906 380.72213286 -207.703125 371.25390625 C-210.38876406 366.58639499 -211.24378257 363.09210684 -211.125 357.6875 C-211.10695313 356.61886719 -211.08890625 355.55023438 -211.0703125 354.44921875 C-211.04710937 353.64097656 -211.02390625 352.83273437 -211 352 C-215.91528399 350.80115025 -219.28182696 351.14973606 -224 353 C-224.33 353.99 -224.66 354.98 -225 356 C-228.07044321 358.08845462 -230.59912751 358.22107559 -234.25 358.125 C-235.14203125 358.10695313 -236.0340625 358.08890625 -236.953125 358.0703125 C-237.96632813 358.03550781 -237.96632813 358.03550781 -239 358 C-240 355 -240 355 -239.0625 352.0625 C-236.40796787 343.28779656 -237.57900317 335.1624762 -241.3828125 326.953125 C-244.13569724 321.92611808 -247.36887692 317.42631089 -251 313 C-251.78117187 312.04673828 -251.78117187 312.04673828 -252.578125 311.07421875 C-265.07038459 297.35166086 -285.48735841 288.9839079 -303.6875 287.75 C-308.20287436 287.78486776 -312.28760207 289.03543307 -316.58203125 290.34375 C-319 291 -319 291 -322 291 C-323.32421875 289.3125 -323.32421875 289.3125 -324.6875 287 C-331.70911793 276.02764372 -340.57721526 269.85722713 -353.32958984 267.03710938 C-354.2108252 266.85986328 -355.09206055 266.68261719 -356 266.5 C-356.95986816 266.29697266 -357.91973633 266.09394531 -358.90869141 265.88476562 C-368.00934678 264.03936678 -377.18298107 262.78310851 -386.375 261.5 C-422.54169693 256.44158253 -422.54169693 256.44158253 -433.32421875 243.52734375 C-436.56034327 238.64675502 -441 230.95123252 -441 225 C-447.51782468 225.11837881 -447.51782468 225.11837881 -452.8125 228.625 C-453.8953125 229.800625 -453.8953125 229.800625 -455 231 C-457.3125 230.8125 -457.3125 230.8125 -459 230 C-459.25122978 224.25015624 -458.70632283 220.2776911 -456.515625 214.859375 C-456.13032623 213.88692841 -456.13032623 213.88692841 -455.73724365 212.89483643 C-454.92090155 210.84117858 -454.08643897 208.79554396 -453.25 206.75 C-452.16655019 204.05941151 -451.09021664 201.36601211 -450.015625 198.671875 C-449.75438843 198.01900513 -449.49315186 197.36613525 -449.22399902 196.69348145 C-443.78426219 183.37164061 -443.78426219 183.37164061 -441.875 169.25 C-441.87242187 168.47140625 -441.86984375 167.6928125 -441.8671875 166.890625 C-441.79315551 164.98823854 -441.79315551 164.98823854 -443 164 C-447.52642225 163.84911926 -451.58300512 163.89575128 -456 165 C-454.39902761 159.12976791 -450.50454553 155.06373091 -445.33251953 152.01806641 C-440.0107216 149.16086589 -434.5228328 146.6321462 -429.04394531 144.09375 C-414.24065213 137.2034899 -404.24213088 128.23163873 -397.74609375 113.07421875 C-397.49988281 112.38972656 -397.25367188 111.70523438 -397 111 C-398.24716797 110.23816406 -398.24716797 110.23816406 -399.51953125 109.4609375 C-400.60621094 108.77257812 -401.69289063 108.08421875 -402.8125 107.375 C-403.89144531 106.70210938 -404.97039063 106.02921875 -406.08203125 105.3359375 C-409.31205827 102.75018629 -410.59098483 100.86472731 -412 97 C-412.09046746 94.15265559 -411.53649044 91.8287678 -411 89 C-410.36384766 89.58007812 -410.36384766 89.58007812 -409.71484375 90.171875 C-403.83985161 95.38835154 -398.64361029 99.83313837 -390.3828125 99.37109375 C-374.48523656 96.89524176 -363.55936555 82.27929638 -354.5625 70.0625 C-342.14775793 53.25585268 -342.14775793 53.25585268 -335 51 C-333.50260417 52.26953125 -332.00520833 53.5390625 -330.5078125 54.80859375 C-324.71258907 59.38772107 -313.52315714 57.43398588 -306.54199219 56.76416016 C-289.13773466 54.58776294 -271.94223477 50.25473709 -254.84277344 46.44189453 C-253.86000427 46.22382645 -252.87723511 46.00575836 -251.86468506 45.78108215 C-250.01128882 45.36924594 -248.15857513 44.95432064 -246.30670166 44.53569031 C-233.80760789 41.76047614 -221.49339761 40.61195997 -209 44 C-211.06740763 48.58942845 -214.1934574 52.35594392 -217.22265625 56.34375 C-218.80106821 58.70269535 -219.576357 60.2365441 -220 63 C-211.99951117 60.957322 -208.34212933 54.58836324 -204 48 C-203.3015208 46.68305314 -202.61784603 45.35664605 -202 44 C-198.83884224 45.36983503 -198.0072908 45.9890638 -196 49 C-195.8046875 51.03369141 -195.8046875 51.03369141 -195.875 53.3515625 C-195.89046875 54.20363281 -195.9059375 55.05570313 -195.921875 55.93359375 C-195.97327858 57.70444695 -196.0253437 59.47528108 -196.078125 61.24609375 C-196.18471623 67.17078955 -195.49075254 72.25827342 -194 78 C-193.401875 77.05125 -192.80375 76.1025 -192.1875 75.125 C-190 72 -190 72 -187 70 C-184.0625 69.5625 -184.0625 69.5625 -181 70 C-177.05341142 73.83696112 -175.1259552 77.85120434 -174.8046875 83.33203125 C-174.83949219 85.05486328 -174.83949219 85.05486328 -174.875 86.8125 C-174.89304687 87.97394531 -174.91109375 89.13539063 -174.9296875 90.33203125 C-174.96449219 91.65267578 -174.96449219 91.65267578 -175 93 C-169.11602922 88.22443253 -163.2743378 83.40719587 -157.5 78.5 C-152.65042237 74.37896395 -147.74839175 70.33008631 -142.8125 66.3125 C-139.68200334 63.73853608 -136.58827539 61.12430914 -133.5 58.5 C-128.64665433 54.37579547 -123.744549 50.3196416 -118.796875 46.30859375 C-116.82148494 44.67806927 -114.87926522 43.03393979 -112.953125 41.34765625 C-82.94097394 15.15346865 -40.32176372 -2.25401164 0 0 Z " fill="#000000" transform="translate(1291,67)"/>
</svg>
